<svg width="24" height="24" viewBox="0 0 24 24" fill="none" xmlns="http://www.w3.org/2000/svg">
<circle cx="12" cy="12" r="12" fill="#3B82F6" fill-opacity="0.1"/>
<path d="M9.4261 17.5159H7.179V9.82731H9.4261V17.5159ZM8.30134 8.77852C7.58279 8.77852 6.99997 8.14616 6.99997 7.38271C6.99997 7.01599 7.13708 6.66429 7.38113 6.40499C7.62519 6.14568 7.9562 6 8.30134 6C8.64649 6 8.97749 6.14568 9.22155 6.40499C9.4656 6.66429 9.60271 7.01599 9.60271 7.38271C9.60271 8.14616 9.01965 8.77852 8.30134 8.77852ZM17.8363 17.5159H15.594V13.7731C15.594 12.8811 15.5771 11.7372 14.4257 11.7372C13.2574 11.7372 13.0784 12.7063 13.0784 13.7089V17.5159H10.8337V9.82731H12.9888V10.8761H13.0203C13.3203 10.272 14.0531 9.63452 15.1464 9.63452C17.4206 9.63452 17.8387 11.2257 17.8387 13.2924V17.5159H17.8363Z" fill="#E1E1E1"/>
</svg>
