<svg width="24" height="24" viewBox="0 0 24 24" fill="none" xmlns="http://www.w3.org/2000/svg">
<circle cx="12" cy="12" r="12" fill="#3B82F6" fill-opacity="0.1"/>
<path d="M16.7665 9.42892C16.7741 9.53552 16.7741 9.64213 16.7741 9.74873C16.7741 13 14.2995 16.7462 9.77665 16.7462C8.38324 16.7462 7.08884 16.3426 6 15.6421C6.19798 15.665 6.38831 15.6726 6.59391 15.6726C7.74363 15.6726 8.80202 15.2843 9.6472 14.6218C8.56598 14.599 7.65989 13.8909 7.3477 12.9162C7.5 12.9391 7.65227 12.9543 7.81219 12.9543C8.03299 12.9543 8.25382 12.9238 8.45939 12.8706C7.33249 12.6421 6.48729 11.6523 6.48729 10.4568V10.4264C6.81469 10.6091 7.19543 10.7234 7.59895 10.7386C6.93652 10.2969 6.50252 9.54313 6.50252 8.69034C6.50252 8.23349 6.62433 7.81471 6.83754 7.44923C8.0482 8.94161 9.86801 9.91621 11.9086 10.0228C11.8705 9.84009 11.8477 9.64975 11.8477 9.45939C11.8477 8.10405 12.9441 7 14.3071 7C15.0152 7 15.6548 7.29695 16.104 7.77665C16.6598 7.67005 17.1928 7.46446 17.6649 7.18274C17.4822 7.75382 17.0939 8.23352 16.5837 8.53806C17.0786 8.48479 17.5583 8.3477 18 8.15737C17.665 8.64466 17.2462 9.07865 16.7665 9.42892Z" fill="#E1E1E1"/>
</svg>
